<svg xmlns="http://www.w3.org/2000/svg" viewBox="0 0 1440 773" preserveAspectRatio="xMidYMid" width="1440" height="773" xmlns:xlink="http://www.w3.org/1999/xlink" style="shape-rendering:auto;display:block;background-position-x:0%;background-position-y:0%;background-size:auto;background-origin:padding-box;background-clip:border-box;background:scroll rgb(210, 211, 212) none  repeat;width:1440px;height:773px;;animation:none"><g><linearGradient y2="0" y1="0" x2="1" x1="0" id="lg-o578w6yh81n"><stop offset="0" stop-color="#000000"></stop>

  
<stop offset="1" stop-color="#000000"></stop></linearGradient>
<path opacity="0.4" fill="url(#lg-o578w6yh81n)" d="M 0 0 L 0 523.08 Q 144 501.74 288 481.74 T 576 368.56 T 864 333.31 T 1152 386.32 T 1440 306.32 L 1440 0 Z" style="fill:url('#lg-o578w6yh81n');opacity:0.4;;animation:none"></path>
<path opacity="0.4" fill="url(#lg-o578w6yh81n)" d="M 0 0 L 0 483.273 Q 144 467.421 288 442.6 T 576 386.497 T 864 315.864 T 1152 252.482 T 1440 252.899 L 1440 0 Z" style="fill:url('#lg-o578w6yh81n');opacity:0.4;;animation:none"></path>
<path opacity="0.4" fill="url(#lg-o578w6yh81n)" d="M 0 0 L 0 495.528 Q 144 542.847 288 518.627 T 576 346.15 T 864 377.419 T 1152 292.666 T 1440 238.634 L 1440 0 Z" style="fill:url('#lg-o578w6yh81n');opacity:0.4;;animation:none"></path>
<path opacity="0.4" fill="url(#lg-o578w6yh81n)" d="M 0 0 L 0 528.79 Q 144 456.866 288 432.145 T 576 451.482 T 864 351.857 T 1152 383.245 T 1440 301.802 L 1440 0 Z" style="fill:url('#lg-o578w6yh81n');opacity:0.4;;animation:none"></path>
<path opacity="0.4" fill="url(#lg-o578w6yh81n)" d="M 0 0 L 0 553.41 Q 144 473.348 288 452.001 T 576 380.709 T 864 391.159 T 1152 246.434 T 1440 193.697 L 1440 0 Z" style="fill:url('#lg-o578w6yh81n');opacity:0.4;;animation:none"></path>
<g></g></g><!-- [ldio] generated by https://loading.io --></svg>